<svg width="26" height="21" viewBox="0 0 26 21" fill="none" xmlns="http://www.w3.org/2000/svg">
<path d="M20.0455 15.75H10.6018C9.24 15.75 8.0325 14.8564 7.66395 13.5765L4.47195 2.76045C4.35855 2.3688 3.9816 2.1 3.5511 2.1H1.05C0.46935 2.1 0 1.6296 0 1.05C0 0.4704 0.46935 0 1.05 0H3.5511C4.91295 0 6.1194 0.89355 6.48795 2.1735L7.0854 4.2H23.1451C23.8003 4.2 24.4219 4.51185 24.8073 5.03475C25.1895 5.55345 25.2997 6.20235 25.1097 6.81555L22.9435 13.6909C22.5193 14.932 21.357 15.75 20.0455 15.75ZM23.1462 6.3H23.1567H23.1462Z" fill="#3F3F3F"/>
<path d="M11.5501 21C10.3919 21 9.45007 20.0581 9.45007 18.9C9.45007 17.7418 10.3919 16.8 11.5501 16.8C12.7082 16.8 13.6501 17.7418 13.6501 18.9C13.6501 20.0581 12.7082 21 11.5501 21ZM11.5501 18.8989V18.9V18.8989Z" fill="#3F3F3F"/>
<path d="M18.9001 21C17.7419 21 16.8001 20.0581 16.8001 18.9C16.8001 17.7418 17.7419 16.8 18.9001 16.8C20.0582 16.8 21.0001 17.7418 21.0001 18.9C21.0001 20.0581 20.0582 21 18.9001 21ZM18.9001 18.8989V18.9V18.8989Z" fill="#3F3F3F"/>
</svg>
