<svg width="80" height="80" viewBox="0 0 80 80" fill="none" xmlns="http://www.w3.org/2000/svg">
<g clip-path="url(#clip0_6_126)">
<path d="M70 9.97334V70.0267C69.993 70.9021 69.6419 71.7396 69.0226 72.3583C68.4033 72.977 67.5654 73.3272 66.69 73.3333H13.31C12.4327 73.3333 11.5913 72.9851 10.9707 72.365C10.35 71.745 10.0009 70.904 10 70.0267V9.97334C10.007 9.09794 10.3581 8.26042 10.9774 7.64171C11.5967 7.02301 12.4346 6.67277 13.31 6.66667H66.69C68.5167 6.66667 70 8.14667 70 9.97334ZM63.3333 13.3333H16.6667V66.6667H63.3333V13.3333ZM37.6433 43.7367L51.7867 29.5967L56.5 34.31L37.6433 53.1667L24.6767 40.2L29.3933 35.4867L37.6433 43.7367Z" fill="#29292E"/>
<path d="M37.6433 43.7365L51.7866 29.5965L56.5 34.3098L37.6433 53.1665L24.6766 40.1998L29.3933 35.4865L37.6433 43.7365Z" fill="#EA8C00"/>
</g>
<defs>
<clipPath id="clip0_6_126">
<rect width="80" height="80" fill="white"/>
</clipPath>
</defs>
</svg>
