<svg width="21" height="21" viewBox="0 0 21 21" fill="none" xmlns="http://www.w3.org/2000/svg">
<path d="M10.5 0C4.695 0 0 4.695 0 10.5C0 16.305 4.695 21 10.5 21C16.305 21 21 16.305 21 10.5C21 4.695 16.305 0 10.5 0ZM16.74 12.15C16.095 14.16 14.52 15.75 12.51 16.395C11.85 16.605 11.175 16.71 10.5 16.71C7.65 16.71 5.12999 14.88 4.25999 12.18C4.00499 11.4 4.44002 10.545 5.22002 10.29C6.01502 10.05 6.85499 10.47 7.10999 11.25C7.70999 13.11 9.72002 14.145 11.595 13.53C12.675 13.185 13.545 12.315 13.89 11.22C14.145 10.44 14.985 10.005 15.765 10.245C16.56 10.515 16.995 11.355 16.74 12.15Z" fill="#3F3F3F"/>
</svg>
