<svg width="21" height="19" viewBox="0 0 21 19" fill="none" xmlns="http://www.w3.org/2000/svg">
<path d="M12.591 14.3274V17.9682C12.591 18.5283 13.0557 19 13.6403 19H19.9507C20.5203 19 21 18.5431 21 17.9682V8.84406C21 8.40186 20.8201 7.98914 20.5054 7.6796L11.6767 0.486424C11.0171 -0.162141 9.95289 -0.162141 9.30835 0.486424L0.494647 7.6796C0.179872 7.98914 0 8.40186 0 8.84406V17.9682C0 18.5283 0.464668 19 1.04925 19H7.34475C7.91435 19 8.394 18.5431 8.394 17.9682V14.3274C8.394 13.1924 9.33833 12.2638 10.4925 12.2638C11.6467 12.2638 12.591 13.1924 12.591 14.3274Z" fill="#EA8C00"/>
</svg>
