<svg width="14" height="14" viewBox="0 0 14 14" fill="none" xmlns="http://www.w3.org/2000/svg">
<g opacity="0.2">
<path fill-rule="evenodd" clip-rule="evenodd" d="M8.48825 2.28801C6.55561 0.352332 3.27954 0.597254 1.69258 3.03067C0.749827 4.4765 0.773396 6.42008 1.73972 7.85801C3.08314 9.84109 5.58143 10.3151 7.47479 9.28804L10.0988 11.8005C10.3816 12.0691 10.8294 12.0691 11.1122 11.7847L11.7879 11.1052C12.0707 10.8208 12.0707 10.3625 11.7879 10.0781L9.24245 7.51038C10.1381 5.83543 9.89452 3.70223 8.48825 2.28801ZM7.18411 7.21015C6.19422 8.20564 4.58369 8.20564 3.5938 7.21015C2.60391 6.21466 2.60391 4.59501 3.5938 3.59952C4.58369 2.60403 6.19422 2.60403 7.18411 3.59952C8.174 4.59501 8.174 6.21466 7.18411 7.21015Z" fill="white"/>
</g>
</svg>
